<?xml version="1.0" encoding="UTF-8"?>
<!DOCTYPE svg PUBLIC "-//W3C//DTD SVG 1.1//EN" "http://www.w3.org/Graphics/SVG/1.1/DTD/svg11.dtd">
<svg xmlns="http://www.w3.org/2000/svg" version="1.1" width="900px" height="900px" style="shape-rendering:geometricPrecision; text-rendering:geometricPrecision; image-rendering:optimizeQuality; fill-rule:evenodd; clip-rule:evenodd" xmlns:xlink="http://www.w3.org/1999/xlink">
<g><path style="opacity:0.992" fill="#213842" d="M 380.5,232.5 C 426.167,232.5 471.833,232.5 517.5,232.5C 518.114,264.83 518.614,297.163 519,329.5C 546.667,313.5 574.333,297.5 602,281.5C 625.219,320.771 648.052,360.271 670.5,400C 642.857,416.826 614.857,433.159 586.5,449C 615.03,464.759 643.03,481.259 670.5,498.5C 647.919,537.997 625.086,577.33 602,616.5C 574.333,600.5 546.667,584.5 519,568.5C 518.602,600.837 518.102,633.17 517.5,665.5C 471.833,665.5 426.167,665.5 380.5,665.5C 380.667,633.165 380.5,600.832 380,568.5C 352.248,584.626 324.415,600.626 296.5,616.5C 273.374,577.082 250.374,537.582 227.5,498C 255.5,481.667 283.5,465.333 311.5,449C 283.5,432.667 255.5,416.333 227.5,400C 250.374,360.418 273.374,320.918 296.5,281.5C 324.33,297.247 351.997,313.247 379.5,329.5C 380.5,297.174 380.833,264.84 380.5,232.5 Z M 449.5,312.5 C 451.652,325.634 453.486,338.967 455,352.5C 468.156,414.321 506.322,446.488 569.5,449C 513.564,449.863 476.731,476.696 459,529.5C 456.951,536.744 455.284,544.078 454,551.5C 453.026,562.887 451.692,574.22 450,585.5C 449.231,565.804 446.231,546.47 441,527.5C 422.617,475.835 385.783,449.669 330.5,449C 389.143,447.994 426.643,419.494 443,363.5C 446.746,346.707 448.913,329.707 449.5,312.5 Z"/></g>
</svg>
